<?xml version="1.0" encoding="iso-8859-1"?>
<svg xmlns="http://www.w3.org/2000/svg" xmlns:xlink="http://www.w3.org/1999/xlink" version="1.1" viewBox="0 0 463 463" enable-background="new 0 0 463 463" width="512px" height="512px">
  <g>
    <path d="m439.5,40h-416c-12.958,0-23.5,10.542-23.5,23.5v336c0,12.958 10.542,23.5 23.5,23.5h416c12.958,0 23.5-10.542 23.5-23.5v-336c0-12.958-10.542-23.5-23.5-23.5zm-167.5,15v84.364l-5.145-2.572c-2.111-1.056-4.598-1.056-6.709,0l-12.645,6.323-12.644-6.323c-2.11-1.055-4.597-1.056-6.707-0.001l-12.653,6.324-12.643-6.323c-1.056-0.528-2.205-0.792-3.354-0.792s-2.299,0.264-3.354,0.792l-5.146,2.573v-84.365h81zm176,344.5c0,4.687-3.813,8.5-8.5,8.5h-416c-4.687,0-8.5-3.813-8.5-8.5v-336c0-4.687 3.813-8.5 8.5-8.5h152.5v96.5c0,2.599 1.346,5.013 3.557,6.38 2.213,1.366 4.975,1.49 7.297,0.329l12.646-6.323 12.643,6.323c2.11,1.055 4.597,1.056 6.707,0.001l12.653-6.324 12.645,6.323c2.111,1.056 4.598,1.056 6.709,0l12.645-6.323 12.645,6.323c1.059,0.529 2.208,0.792 3.354,0.792 1.371,0 2.738-0.376 3.943-1.12 2.211-1.367 3.557-3.78 3.557-6.38v-96.501h152.5c4.687,0 8.5,3.813 8.5,8.5v336z" fill="#FFFFFF"/>
    <path d="m287.5,232h-147.759l31.479-17.988c3.597-2.055 4.846-6.636 2.791-10.233-2.056-3.597-6.638-4.847-10.232-2.791l-43.845,25.054c-4.351,2.486-7.136,6.745-7.698,11.62-0.149,0.589-0.236,1.202-0.236,1.837s0.088,1.249 0.236,1.837c0.563,4.875 3.347,9.134 7.698,11.62l43.845,25.054c1.174,0.671 2.452,0.99 3.714,0.99 2.604,0 5.135-1.358 6.519-3.78 2.055-3.597 0.806-8.178-2.791-10.233l-31.48-17.987h147.759c26.743,0 48.5,21.757 48.5,48.5s-21.757,48.5-48.5,48.5h-96c-4.143,0-7.5,3.358-7.5,7.5s3.357,7.5 7.5,7.5h96c35.014,0 63.5-28.486 63.5-63.5s-28.486-63.5-63.5-63.5z" fill="#FFFFFF"/>
  </g>
</svg>
