<?xml version="1.0" encoding="UTF-8" standalone="no"?>
<svg width="87px" height="85px" viewBox="0 0 87 85" version="1.1" xmlns="http://www.w3.org/2000/svg" xmlns:xlink="http://www.w3.org/1999/xlink">
    <!-- Generator: Sketch 3.8.3 (29802) - http://www.bohemiancoding.com/sketch -->
    <title>logo2</title>
    <desc>Created with Sketch.</desc>
    <defs></defs>
    <g id="Page-1" stroke="none" stroke-width="1" fill="none" fill-rule="evenodd">
        <g id="Dribble" transform="translate(-293.000000, -108.000000)">
            <g id="logo2" transform="translate(294.000000, 109.000000)">
                <g id="logo" transform="translate(7.000000, 18.000000)">
                    <g id="awesTRUCK">
                        <g id="loginEntry">
                            <g id="logo">
                                <g id="Group">
                                    <polygon id="Fill-1" fill="#FFFFFF" points="62.551 27.3878571 70.5465329 27.3878571 70.5465329 24.2870997 62.551 24.2870997"></polygon>
                                    <polygon id="Fill-1" fill="#FFFFFF" points="0.361218978 27.3878571 8.35675185 27.3878571 8.35675185 24.2870997 0.361218978 24.2870997"></polygon>
                                    <polygon id="Fill-2" fill="#FCFCFC" points="31.3314708 27.3879088 39.0181277 27.3879088 35.1856825 23.4029187"></polygon>
                                    <g id="Group-9" transform="translate(2.591241, 0.043927)">
                                        <path d="M59.5927833,27.4205147 L65.4796207,27.4205147 L66.2030947,26.9595354 L66.2901605,13.5229199 L62.4893285,12.1446332 L59.7249925,2.84217094e-14 L2.63166423,2.84217094e-14 L0.23580292,25.3119997 L0,27.4205147 L5.83594528,27.4205147 C5.83215526,27.3393127 5.83024013,27.2576467 5.83024013,27.1755549 C5.83024013,24.1786781 8.38254389,21.7492294 11.5309701,21.7492294 C14.6793963,21.7492294 17.2317,24.1786781 17.2317,27.1755549 C17.2317,27.2576467 17.2297849,27.3393127 17.2259948,27.4205147 L25.8507372,27.4205147 L31.3602336,22.1523279 L23.3615912,13.8350629 C23.1662117,14.1730454 22.6251606,15.0335056 22.2473577,14.8836357 C21.7804161,14.6986238 15.5951241,7.48109407 15.5951241,7.48109407 L15.8775693,7.3208883 L21.1300146,11.7053593 L16.6108905,6.52864478 L16.7938321,6.34570005 L21.924489,10.6697063 L17.5877883,5.55449016 L17.754146,5.32813485 C17.754146,5.32813485 24.992,11.4965749 25.1775329,11.9616886 C25.3076132,12.2888185 24.6717226,12.7394619 24.2788905,12.9808042 L32.5915912,20.9745568 L41.1240292,12.8149137 C40.7850949,12.6200827 39.9222117,12.0800341 40.0725036,11.7032921 C40.2580365,11.2381785 47.4958905,5.07025519 47.4958905,5.07025519 L47.6565475,5.35190732 L43.2597299,10.5896034 L48.4510219,6.08316929 L48.6344818,6.2655972 L44.297781,11.3813302 L49.4279197,7.0573239 L49.6543942,7.22321445 C49.6543942,7.22321445 43.4691022,14.4407441 43.0026788,14.625756 C42.6746277,14.755471 42.2227153,14.1213661 41.9806934,13.7291203 L33.8255401,22.1616301 L39.2940949,27.4205147 L48.2027336,27.4205147 C48.1989436,27.3393127 48.1970285,27.2576467 48.1970285,27.1755549 C48.1970285,24.1786781 50.7493322,21.7492294 53.8977584,21.7492294 C57.0461845,21.7492294 59.5984881,24.1786781 59.5984881,27.1755549 C59.5984881,27.2576467 59.5965733,27.3393127 59.5927833,27.4205147 L59.5927833,27.4205147 Z" id="Combined-Shape" fill="#FCFCFC"></path>
                                        <path d="M15.9219832,26.8566974 C15.9219832,29.1977692 13.9495307,31.0959496 11.5168737,31.0959496 C9.0842168,31.0959496 7.11176426,29.1977692 7.11176426,26.8566974 C7.11176426,24.5156255 9.0842168,22.6174452 11.5168737,22.6174452 C13.9495307,22.6174452 15.9219832,24.5156255 15.9219832,26.8566974" id="Fill-5" fill="#FFFFFF"></path>
                                        <path d="M58.2925603,26.8566974 C58.2925603,29.1977692 56.3201077,31.0959496 53.8874509,31.0959496 C51.454794,31.0959496 49.4823415,29.1977692 49.4823415,26.8566974 C49.4823415,24.5156255 51.454794,22.6174452 53.8874509,22.6174452 C56.3201077,22.6174452 58.2925603,24.5156255 58.2925603,26.8566974" id="Fill-7" fill="#FFFFFF"></path>
                                    </g>
                                    <g id="AWES" transform="translate(8.806202, 34.285711)" font-size="9.97947777" font-family="Oswald-Regular, Oswald" fill="#FFFFFF" font-weight="normal">
                                        <text id="A">
                                            <tspan x="0.12119711" y="12.1316959">A</tspan>
                                        </text>
                                        <text id="WES">
                                            <tspan x="4.82236827" y="12.1316959">WES</tspan>
                                        </text>
                                    </g>
                                    <g id="TRUCK" transform="translate(30.821705, 31.868132)" font-size="12.1179373" font-family="Oswald-Bold, Oswald" fill="#FFFFFF" font-weight="bold">
                                        <text>
                                            <tspan x="0.273185104" y="14.2056859">TRUCK</tspan>
                                        </text>
                                    </g>
                                </g>
                            </g>
                        </g>
                    </g>
                </g>
                <ellipse id="Oval-3" stroke="#FFFFFF" cx="42.5" cy="41.5" rx="42.5" ry="41.5"></ellipse>
            </g>
        </g>
    </g>
</svg>